<?xml version="1.0" standalone="no"?>
<!DOCTYPE svg PUBLIC "-//W3C//DTD SVG 20010904//EN"
 "http://www.w3.org/TR/2001/REC-SVG-20010904/DTD/svg10.dtd">
<svg version="1.0" xmlns="http://www.w3.org/2000/svg"
 width="1040.000000pt" height="1040.000000pt" viewBox="0 0 1040.000000 1040.000000"
 preserveAspectRatio="xMidYMid meet">
<metadata>
Created by potrace 1.14, written by Peter Selinger 2001-2017
</metadata>
<g transform="translate(0.000000,1040.000000) scale(0.100000,-0.100000)"
fill="#000000" stroke="none">
<path d="M6880 6700 l0 -180 340 0 340 0 0 -1140 0 -1140 -360 0 -360 0 0
-180 0 -180 920 0 920 0 0 180 0 180 -340 0 -340 0 0 1320 0 1320 -560 0 -560
0 0 -180z"/>
<path d="M1932 5928 c116 -153 711 -984 711 -992 0 -6 -161 -231 -359 -501
-198 -269 -370 -505 -382 -522 l-23 -33 243 0 243 1 259 379 c143 209 264 379
270 377 5 -2 127 -173 270 -380 l261 -376 263 -1 263 0 -39 53 c-407 552 -741
1020 -736 1029 4 6 167 228 363 492 197 265 360 487 365 494 6 9 -44 12 -231
12 l-239 0 -170 -247 c-94 -137 -206 -299 -248 -360 -43 -62 -81 -113 -85
-113 -4 0 -120 162 -257 360 l-249 360 -259 0 -258 0 24 -32z"/>
<path d="M4440 5780 l0 -180 280 0 280 0 0 -680 0 -680 -280 0 -280 0 0 -180
0 -180 880 0 880 0 0 180 0 180 -381 0 -380 0 4 428 c4 456 5 469 58 579 31
65 141 173 210 207 110 53 145 58 427 63 l262 5 0 219 0 219 -177 0 c-212 0
-284 -13 -403 -71 -155 -76 -265 -211 -335 -411 -15 -43 -32 -78 -36 -78 -5 0
-9 126 -9 280 l0 280 -500 0 -500 0 0 -180z"/>
</g>
</svg>
