<svg xmlns="http://www.w3.org/2000/svg" viewBox="0 0 150 32"><defs><style>.cls-1{fill:#1d1d1b;}</style></defs><g id="Layer_2" data-name="Layer 2"><g id="Layer_1-2" data-name="Layer 1"><path class="cls-1" d="M16,32V24H12V20H8v4H4v8H0V24H4V20H8V16H4V12H0V8H4v4H8v4h4V12h4V8h4v4H16v4H12v4h4v4h4v8Z"/><path class="cls-1" d="M36,12v4H32V32H28V8h4v4h4V8h8v4Z"/><path class="cls-1" d="M52,32V4H48V0h8V32Z"/><path class="cls-1" d="M65,32V24h4v8Z"/><path class="cls-1" d="M93,32V12H81V32H77V8H93v4h4V32Z"/><path class="cls-1" d="M121,28v4H109V28h-4V12h4V8h12v4h4V28Zm0-16H109V28h12Z"/><path class="cls-1" d="M146,11v7h-4v7h-4v7h-4V25h4V18h4V11h4V4h4v7Z"/></g></g></svg>